<svg viewBox="0 0 760 340" xmlns="http://www.w3.org/2000/svg" font-family="'Segoe UI', Verdana, sans-serif">
  <defs>
    <linearGradient id="bg" x1="0" y1="0" x2="1" y2="1">
      <stop offset="0%" stop-color="#1a1b26"/>
      <stop offset="100%" stop-color="#16161e"/>
    </linearGradient>
    <linearGradient id="xpbar" x1="0" y1="0" x2="1" y2="0">
      <stop offset="0%" stop-color="#7aa2f7"/>
      <stop offset="100%" stop-color="#bb9af7"/>
    </linearGradient>
  </defs>

  <rect x="0" y="0" width="760" height="340" rx="14" fill="url(#bg)" stroke="#414868" stroke-width="1.5"/>

  <!-- Header -->
  <text x="30" y="45" font-size="22" font-weight="700" fill="#c0caf5">🎮 Dhawal Shukla — Backend Engineer</text>
  <text x="30" y="68" font-size="13" fill="#565f89">Class: Systems Builder   •   Guild: TheWittySwan</text>
  <line x1="30" y1="82" x2="730" y2="82" stroke="#292e42" stroke-width="1"/>

  <!-- Level badge -->
  <circle cx="690" cy="45" r="34" fill="#24283b" stroke="#bb9af7" stroke-width="2.5"/>
  <text x="690" y="40" font-size="11" fill="#9aa5ce" text-anchor="middle">LEVEL</text>
  <text x="690" y="58" font-size="20" font-weight="700" fill="#bb9af7" text-anchor="middle">27</text>

  <!-- XP bar -->
  <text x="30" y="105" font-size="12" fill="#9aa5ce">XP — Backend Engineer → Systems Architect</text>
  <rect x="30" y="112" width="700" height="14" rx="7" fill="#24283b"/>
  <rect x="30" y="112" width="518" height="14" rx="7" fill="url(#xpbar)"/>
  <text x="730" y="123" font-size="11" fill="#565f89" text-anchor="end">74%</text>

  <!-- Stats -->
  <text x="30" y="160" font-size="14" font-weight="700" fill="#c0caf5">STATS</text>

  <!-- Backend Engineering -->
  <text x="30" y="182" font-size="12" fill="#c0caf5">⚙️ Backend Engineering</text>
  <rect x="230" y="172" width="220" height="12" rx="6" fill="#24283b"/>
  <rect x="230" y="172" width="198" height="12" rx="6" fill="#9ece6a"/>
  <text x="460" y="182" font-size="11" fill="#9ece6a">9/10</text>

  <!-- Network Security -->
  <text x="30" y="207" font-size="12" fill="#c0caf5">🛡️ Network Security</text>
  <rect x="230" y="197" width="220" height="12" rx="6" fill="#24283b"/>
  <rect x="230" y="197" width="176" height="12" rx="6" fill="#7dcfff"/>
  <text x="460" y="207" font-size="11" fill="#7dcfff">8/10</text>

  <!-- AI Engineering -->
  <text x="30" y="232" font-size="12" fill="#c0caf5">🤖 AI Engineering</text>
  <rect x="230" y="222" width="220" height="12" rx="6" fill="#24283b"/>
  <rect x="230" y="222" width="154" height="12" rx="6" fill="#bb9af7"/>
  <text x="460" y="232" font-size="11" fill="#bb9af7">7/10</text>

  <!-- Technical Writing -->
  <text x="30" y="257" font-size="12" fill="#c0caf5">📚 Technical Writing</text>
  <rect x="230" y="247" width="220" height="12" rx="6" fill="#24283b"/>
  <rect x="230" y="247" width="176" height="12" rx="6" fill="#e0af68"/>
  <text x="460" y="257" font-size="11" fill="#e0af68">8/10</text>

  <!-- Achievements -->
  <text x="500" y="160" font-size="14" font-weight="700" fill="#c0caf5">🏆 ACHIEVEMENTS UNLOCKED</text>

  <rect x="500" y="172" width="215" height="26" rx="6" fill="#24283b" stroke="#414868"/>
  <text x="510" y="189" font-size="11" fill="#9ece6a">📦 Shipped CLI on PyPI</text>

  <rect x="500" y="202" width="215" height="26" rx="6" fill="#24283b" stroke="#414868"/>
  <text x="510" y="219" font-size="11" fill="#7aa2f7">🖥️ Self-Hosted Infra Deployed</text>

  <rect x="500" y="232" width="215" height="26" rx="6" fill="#24283b" stroke="#414868"/>
  <text x="510" y="249" font-size="11" fill="#bb9af7">🔐 Built Security Labs</text>

  <rect x="500" y="262" width="215" height="26" rx="6" fill="#24283b" stroke="#414868"/>
  <text x="510" y="279" font-size="11" fill="#e0af68">🌐 Domain Live in Production</text>

  <line x1="30" y1="295" x2="730" y2="295" stroke="#292e42" stroke-width="1"/>
  <text x="30" y="318" font-size="10" fill="#565f89" font-style="italic">"Mukarrar hai, mukammal hogi woh nayaab manzil — fateh se faasle, ab hum rakh nahi sakte."</text>
</svg>